<?xml version="1.0" encoding="UTF-8"?> <svg xmlns="http://www.w3.org/2000/svg" width="50" height="52" viewBox="0 0 50 52" fill="none"> <path fill-rule="evenodd" clip-rule="evenodd" d="M29.6335 10.1584L24.5027 0.222595L19.5461 10.2465L9.55503 5.22402L11.4369 16.2469L0.401855 18.0563L8.40346 25.8679L0.539405 33.8179L11.6044 35.4344L9.91514 46.4885L19.817 41.2924L24.9478 51.2283L29.9045 41.2044L39.8955 46.2269L38.0136 35.2039L49.0487 33.3946L41.0471 25.583L48.9111 17.633L37.8462 16.0165L39.5354 4.96239L29.6335 10.1584ZM23.9141 33.0835L35.4141 21.5835L32.5857 18.7551L22.4999 28.8409L18.4141 24.7551L15.5857 27.5835L21.0857 33.0835L22.4999 34.4977L23.9141 33.0835Z" fill="white"></path> </svg> 