<?xml version="1.0" encoding="UTF-8"?> <svg xmlns="http://www.w3.org/2000/svg" width="230" height="191" viewBox="0 0 230 191" fill="none"> <path d="M30.4642 44.1088L35.0286 52.0388L43.0371 56.4641L35.107 61.0286L30.6817 69.0371L26.1173 61.107L18.1088 56.6817L26.0388 52.1173L30.4642 44.1088Z" fill="white"></path> <path d="M48.4155 39.0472L50.3987 42.4927L53.8782 44.4154L50.4327 46.3986L48.51 49.8782L46.5268 46.4327L43.0473 44.51L46.4927 42.5268L48.4155 39.0472Z" fill="white"></path> <rect x="12" y="2" width="90" height="101" stroke="white" stroke-width="4"></rect> <line x1="79" y1="-8.74228e-08" x2="79" y2="105" stroke="white" stroke-width="4"></line> <line y1="111" x2="114" y2="111" stroke="white" stroke-width="4"></line> <path d="M15.6641 82L20.9441 70.72H23.2641L28.5441 82H25.6001L24.6241 79.712H19.5841L18.6081 82H15.6641ZM22.0801 73.792L20.5441 77.456H23.6481L22.1121 73.792H22.0801Z" fill="white"></path> <path d="M29.1632 82V74.128H32.0112V76.912H32.7792L34.6992 74.128H37.7072L35.2912 77.664C35.5045 77.8027 35.6912 77.9733 35.8512 78.176C36.0219 78.368 36.1712 78.5813 36.2992 78.816L37.9952 82H34.9712L33.7712 79.76C33.6219 79.504 33.4725 79.328 33.3232 79.232C33.1739 79.136 32.9819 79.088 32.7472 79.088H32.0112V82H29.1632Z" fill="white"></path> <path d="M45.6213 84.08V82H38.7413V74.128H41.5893V79.824H43.8453V74.128H46.6933V79.824H48.0213V84.08H45.6213Z" fill="white"></path> <path d="M49.2101 82V74.128H51.7701V78.384L55.0021 74.128H57.3381V82H54.7781V77.728L51.5461 82H49.2101Z" fill="white"></path> <path d="M58.5529 82L59.6569 80.064C59.9556 79.5413 60.3503 79.184 60.8409 78.992C59.5716 78.7253 58.9369 77.952 58.9369 76.672C58.9369 75.872 59.2143 75.248 59.7689 74.8C60.3236 74.352 61.1236 74.128 62.1689 74.128H66.7289V82H64.1209V79.616H63.6409C63.4596 79.616 63.2889 79.6747 63.1289 79.792C62.9689 79.9093 62.8303 80.064 62.7129 80.256L61.7369 82H58.5529ZM62.7929 77.824H64.1209V75.92H62.7929C62.3983 75.92 62.0996 76.0053 61.8969 76.176C61.6943 76.336 61.5929 76.5653 61.5929 76.864C61.5929 77.1627 61.6943 77.3973 61.8969 77.568C62.0996 77.7387 62.3983 77.824 62.7929 77.824Z" fill="white"></path> <path d="M16.9601 98V90.128H19.2961L21.7441 94.048L24.1761 90.128H26.4961V98H24.0001V94.08L22.3681 96.704H21.0881L19.4561 94.08V98H16.9601Z" fill="white"></path> <path d="M32.7172 98.176C31.7572 98.176 30.9252 98.0107 30.2212 97.68C29.5279 97.3387 28.9945 96.8587 28.6212 96.24C28.2479 95.6213 28.0612 94.8907 28.0612 94.048C28.0612 93.248 28.2372 92.5387 28.5892 91.92C28.9519 91.3013 29.4425 90.8213 30.0612 90.48C30.6905 90.128 31.4052 89.952 32.2052 89.952C32.9945 89.952 33.6772 90.1173 34.2532 90.448C34.8399 90.7787 35.2879 91.2533 35.5972 91.872C35.9172 92.48 36.0772 93.1947 36.0772 94.016V94.64H30.7812C30.8772 95.152 31.0905 95.52 31.4212 95.744C31.7519 95.968 32.2105 96.08 32.7972 96.08C33.2025 96.08 33.6239 96.0213 34.0612 95.904C34.5092 95.776 34.9039 95.5947 35.2452 95.36L35.9492 97.232C35.5439 97.52 35.0479 97.7493 34.4612 97.92C33.8745 98.0907 33.2932 98.176 32.7172 98.176ZM32.3332 91.792C31.9065 91.792 31.5545 91.92 31.2772 92.176C31.0105 92.432 30.8399 92.8053 30.7652 93.296H33.7412C33.7092 92.7947 33.5705 92.4213 33.3252 92.176C33.0905 91.92 32.7599 91.792 32.3332 91.792Z" fill="white"></path> <path d="M41.6171 98.176C40.7317 98.176 39.9584 98.0107 39.2971 97.68C38.6464 97.3493 38.1397 96.8747 37.7771 96.256C37.4144 95.6373 37.2331 94.9013 37.2331 94.048C37.2331 93.1947 37.4144 92.464 37.7771 91.856C38.1397 91.2373 38.6464 90.768 39.2971 90.448C39.9584 90.1173 40.7317 89.952 41.6171 89.952C42.1397 89.952 42.6571 90.0267 43.1691 90.176C43.6917 90.3147 44.1184 90.512 44.4491 90.768L43.6971 92.72C43.4517 92.528 43.1637 92.3787 42.8331 92.272C42.5131 92.1547 42.2091 92.096 41.9211 92.096C41.3557 92.096 40.9184 92.2667 40.6091 92.608C40.2997 92.9493 40.1451 93.4293 40.1451 94.048C40.1451 94.6773 40.2997 95.168 40.6091 95.52C40.9184 95.8613 41.3557 96.032 41.9211 96.032C42.2091 96.032 42.5131 95.9787 42.8331 95.872C43.1637 95.7547 43.4517 95.6 43.6971 95.408L44.4491 97.36C44.1184 97.616 43.6917 97.8187 43.1691 97.968C42.6464 98.1067 42.1291 98.176 41.6171 98.176Z" fill="white"></path> <path d="M44.9123 98L46.0163 96.064C46.315 95.5413 46.7096 95.184 47.2003 94.992C45.931 94.7253 45.2963 93.952 45.2963 92.672C45.2963 91.872 45.5736 91.248 46.1283 90.8C46.683 90.352 47.483 90.128 48.5283 90.128H53.0883V98H50.4803V95.616H50.0003C49.819 95.616 49.6483 95.6747 49.4883 95.792C49.3283 95.9093 49.1896 96.064 49.0723 96.256L48.0963 98H44.9123ZM49.1523 93.824H50.4803V91.92H49.1523C48.7576 91.92 48.459 92.0053 48.2563 92.176C48.0536 92.336 47.9523 92.5653 47.9523 92.864C47.9523 93.1627 48.0536 93.3973 48.2563 93.568C48.459 93.7387 48.7576 93.824 49.1523 93.824Z" fill="white"></path> <path d="M61.8869 100.08V98H55.0069V90.128H57.8549V95.824H60.1109V90.128H62.9589V95.824H64.2869V100.08H61.8869Z" fill="white"></path> <path d="M68.2277 98.176C67.6197 98.176 67.081 98.064 66.6117 97.84C66.153 97.616 65.7904 97.312 65.5237 96.928C65.2677 96.5333 65.1397 96.0853 65.1397 95.584C65.1397 95.0187 65.289 94.5707 65.5877 94.24C65.8864 93.8987 66.3664 93.6587 67.0277 93.52C67.689 93.3707 68.569 93.296 69.6677 93.296H70.2757V93.072C70.2757 92.688 70.1744 92.416 69.9717 92.256C69.7797 92.096 69.4437 92.016 68.9637 92.016C68.5584 92.016 68.1104 92.08 67.6197 92.208C67.129 92.336 66.649 92.5333 66.1797 92.8L65.4597 90.928C65.7264 90.736 66.0677 90.5653 66.4837 90.416C66.8997 90.2667 67.337 90.1547 67.7957 90.08C68.2544 89.9947 68.6864 89.952 69.0917 89.952C70.4037 89.952 71.3744 90.2347 72.0037 90.8C72.6437 91.3653 72.9637 92.256 72.9637 93.472V98H70.3077V96.88C70.169 97.2853 69.9184 97.6053 69.5557 97.84C69.193 98.064 68.7504 98.176 68.2277 98.176ZM68.8677 96.32C69.2624 96.32 69.593 96.192 69.8597 95.936C70.137 95.68 70.2757 95.344 70.2757 94.928V94.64H69.6677C69.0384 94.64 68.5744 94.7093 68.2757 94.848C67.9877 94.976 67.8437 95.184 67.8437 95.472C67.8437 95.7173 67.929 95.92 68.0997 96.08C68.281 96.24 68.537 96.32 68.8677 96.32Z" fill="white"></path> <path opacity="0.3" fill-rule="evenodd" clip-rule="evenodd" d="M147 22.2679L118 0V105L147 127.268L147 22.2679ZM157 29.9464L157 134.946L230 191V86L157 29.9464Z" fill="white"></path> </svg> 