<?xml version="1.0" encoding="UTF-8"?> <svg xmlns="http://www.w3.org/2000/svg" width="148" height="48" viewBox="0 0 148 48" fill="none"> <g clip-path="url(#clip0_1085_2358)"> <path d="M22.0665 27.7328H17.7605V23.4656H22.0665V27.7328Z" fill="white"></path> <path d="M16.1456 27.7328H11.8396V23.4656H16.1456V27.7328Z" fill="white"></path> <path d="M27.9849 21.8677H23.679V17.6005H27.9849V21.8677Z" fill="white"></path> <path d="M22.0665 21.8677H17.7605V17.6005H22.0665V21.8677Z" fill="white"></path> <path d="M16.1456 21.8677H11.8396V17.6005H16.1456V21.8677Z" fill="white"></path> <path d="M10.2244 21.8677H5.91846V17.6005H10.2244V21.8677Z" fill="white"></path> <path d="M27.9849 16H23.679V11.7328H27.9849V16Z" fill="white"></path> <path d="M22.0665 16H17.7605V11.7328H22.0665V16Z" fill="white"></path> <path d="M16.1456 16H11.8396V11.7328H16.1456V16Z" fill="white"></path> <path d="M10.2244 16H5.91846V11.7328H10.2244V16Z" fill="white"></path> <path d="M4.30596 16H0V11.7328H4.30596V16Z" fill="white"></path> <path d="M27.9849 10.1323H23.679V5.86517H27.9849V10.1323Z" fill="white"></path> <path d="M22.0665 10.1323H17.7605V5.86517H22.0665V10.1323Z" fill="white"></path> <path d="M16.1456 10.1323H11.8396V5.86517H16.1456V10.1323Z" fill="white"></path> <path d="M10.2244 10.1323H5.91846V5.86517H10.2244V10.1323Z" fill="white"></path> <path d="M4.30596 10.1323H0V5.86517H4.30596V10.1323Z" fill="white"></path> <path d="M22.0665 4.26717H17.7605V0H22.0665V4.26717Z" fill="white"></path> <path d="M16.1456 4.26717H11.8396V0H16.1456V4.26717Z" fill="white"></path> <path d="M10.2244 4.26717H5.91846V0H10.2244V4.26717Z" fill="white"></path> <path d="M148 16V42.6667C148 45.3333 146.385 48 143.157 48H128.895V41.6005H137.775C139.12 41.6005 139.391 41.0662 139.391 40V38.1336H132.125C128.895 38.1336 127.283 35.4669 127.283 32.8003V16.005L135.895 16V31.1997C135.895 32.5318 136.434 32.8003 137.51 32.8003H139.393V16H148.005H148Z" fill="white"></path> <path d="M107.636 16C104.406 16 102.794 18.6667 102.794 21.3333V47.9975H111.403L111.408 34.6667H114.902V48H123.513V16H107.636ZM114.902 29.3333H111.403V22.9338C111.403 21.6018 111.942 21.3409 113.018 21.3409L114.902 21.3333V29.3333Z" fill="white"></path> <path d="M99.0245 37.3333V48H90.4126V34.6667H88.5292C87.4534 34.6667 86.9142 34.9326 86.9142 36.2672V47.995H78.3022V37.3333C78.3048 34.6667 79.6464 32.2659 81.8007 31.995C79.649 31.7341 78.3022 29.3333 78.3073 26.6667V16H86.9142V29.3333H88.7975C89.8734 29.3333 90.4126 29.0674 90.4126 27.7328V16H99.0245V26.6667C99.0271 29.3333 97.6778 31.7341 95.5261 31.995C97.6778 32.2684 99.0271 34.6667 99.0245 37.3333Z" fill="white"></path> <path d="M68.3486 29.3333H73.7254V34.6667H68.3486V41.5829L74.538 41.598V47.9975H59.7393V16.0075L74.538 16V22.3995H68.3486V29.3333Z" fill="white"></path> <path d="M51.1273 16H36.3286V47.9975H44.9355V39.4682H51.1273C54.3575 39.4682 55.97 36.8015 55.97 34.1348V21.3358C55.97 18.6692 54.3549 16 51.1273 16.0025V16ZM48.4364 32.5343C48.4364 33.8664 47.8972 34.1348 46.8214 34.1348H44.938L44.9355 21.3358H46.8214C47.8972 21.3358 48.4364 21.6018 48.4364 22.9363V32.5368V32.5343Z" fill="white"></path> </g> <defs> <clipPath id="clip0_1085_2358"> <rect width="148" height="48" fill="white"></rect> </clipPath> </defs> </svg> 