<?xml version="1.0" encoding="UTF-8"?> <svg xmlns="http://www.w3.org/2000/svg" width="128" height="101" viewBox="0 0 128 101" fill="none"> <rect x="36" width="92" height="77" fill="#E50040"></rect> <path d="M80.7201 46.76C79.4134 46.76 78.2401 46.5067 77.2001 46C76.1601 45.4667 75.3467 44.7333 74.7601 43.8C74.1734 42.8667 73.8801 41.7733 73.8801 40.52C73.8801 38.6 74.5201 37.0933 75.8001 36C77.1067 34.9067 78.7467 34.36 80.7201 34.36C82.6667 34.36 84.2801 34.9067 85.5601 36C86.8667 37.0933 87.5201 38.6 87.5201 40.52C87.5201 41.7733 87.2134 42.8667 86.6001 43.8C86.0134 44.7333 85.2001 45.4667 84.1601 46C83.1467 46.5067 82.0001 46.76 80.7201 46.76ZM45.5601 63V34.8H50.9601L63.9201 50.96V34.8H70.7201V63H65.3601L52.4001 46.84V63H45.5601ZM80.7201 43.44C81.4134 43.44 81.9601 43.2 82.3601 42.72C82.7867 42.2133 83.0001 41.48 83.0001 40.52C83.0001 39.56 82.7867 38.84 82.3601 38.36C81.9601 37.88 81.4134 37.64 80.7201 37.64C80.0001 37.64 79.4267 37.88 79.0001 38.36C78.6001 38.8133 78.4001 39.5333 78.4001 40.52C78.4001 41.5067 78.6001 42.24 79.0001 42.72C79.4267 43.2 80.0001 43.44 80.7201 43.44ZM74.4401 53.52V49.36H87.0001V53.52H74.4401Z" fill="white"></path> <path d="M93.9126 63V57.04H100.193V42.84L95.4326 45.56L92.7526 40.24L102.353 34.8H107.513V57.04H113.393V63H93.9126Z" fill="white"></path> <path d="M50.3819 25.198C49.3259 25.198 48.3899 25.072 47.5739 24.82C46.7699 24.556 46.0559 24.19 45.4319 23.722L46.2599 21.652C46.7519 22.036 47.3219 22.336 47.9699 22.552C48.6299 22.756 49.3559 22.858 50.1479 22.858C51.0479 22.858 51.7139 22.72 52.1459 22.444C52.5779 22.168 52.7939 21.736 52.7939 21.148C52.7939 20.644 52.6259 20.272 52.2899 20.032C51.9539 19.78 51.4259 19.654 50.7059 19.654H47.6459V17.476H50.3999C51.7679 17.476 52.4519 16.984 52.4519 16C52.4519 15.532 52.2719 15.154 51.9119 14.866C51.5519 14.578 50.9699 14.434 50.1659 14.434C49.4939 14.434 48.8399 14.536 48.2039 14.74C47.5679 14.944 47.0039 15.238 46.5119 15.622L45.7019 13.552C46.2659 13.108 46.9679 12.76 47.8079 12.508C48.6479 12.244 49.5479 12.112 50.5079 12.112C52.0799 12.112 53.2559 12.442 54.0359 13.102C54.8159 13.75 55.2059 14.584 55.2059 15.604C55.2059 16.276 55.0319 16.858 54.6839 17.35C54.3479 17.83 53.8799 18.19 53.2799 18.43C53.9999 18.634 54.5519 18.994 54.9359 19.51C55.3319 20.026 55.5299 20.662 55.5299 21.418C55.5299 22.546 55.1099 23.458 54.2699 24.154C53.4299 24.85 52.1339 25.198 50.3819 25.198Z" fill="white"></path> <path d="M60.5314 25.198C59.8714 25.198 59.2894 25.072 58.7854 24.82C58.2814 24.568 57.8794 24.226 57.5794 23.794C57.2914 23.362 57.1474 22.876 57.1474 22.336C57.1474 21.7 57.3154 21.19 57.6514 20.806C57.9874 20.422 58.5334 20.152 59.2894 19.996C60.0454 19.828 61.0474 19.744 62.2954 19.744H62.9434V19.438C62.9434 18.91 62.8234 18.538 62.5834 18.322C62.3434 18.094 61.9354 17.98 61.3594 17.98C60.8794 17.98 60.3694 18.058 59.8294 18.214C59.3014 18.358 58.7734 18.58 58.2454 18.88L57.5074 17.062C57.8194 16.858 58.1974 16.672 58.6414 16.504C59.0974 16.336 59.5714 16.21 60.0634 16.126C60.5554 16.03 61.0234 15.982 61.4674 15.982C62.8354 15.982 63.8554 16.294 64.5274 16.918C65.1994 17.53 65.5354 18.484 65.5354 19.78V25H62.9974V23.668C62.8174 24.136 62.5114 24.508 62.0794 24.784C61.6594 25.06 61.1434 25.198 60.5314 25.198ZM61.1434 23.38C61.6474 23.38 62.0734 23.206 62.4214 22.858C62.7694 22.51 62.9434 22.06 62.9434 21.508V21.148H62.3134C61.3894 21.148 60.7354 21.232 60.3514 21.4C59.9674 21.556 59.7754 21.832 59.7754 22.228C59.7754 22.564 59.8894 22.84 60.1174 23.056C60.3574 23.272 60.6994 23.38 61.1434 23.38Z" fill="white"></path> <path d="M67.8617 25V16.162H72.8837C74.0837 16.162 74.9357 16.372 75.4397 16.792C75.9437 17.2 76.1957 17.764 76.1957 18.484C76.1957 18.928 76.0697 19.318 75.8177 19.654C75.5777 19.99 75.2417 20.236 74.8097 20.392C75.3977 20.536 75.8297 20.794 76.1057 21.166C76.3817 21.538 76.5197 21.988 76.5197 22.516C76.5197 23.272 76.2197 23.878 75.6197 24.334C75.0317 24.778 74.1677 25 73.0277 25H67.8617ZM70.3637 19.69H72.5957C72.9557 19.69 73.2377 19.606 73.4417 19.438C73.6457 19.27 73.7477 19.03 73.7477 18.718C73.7477 18.406 73.6457 18.172 73.4417 18.016C73.2377 17.86 72.9557 17.782 72.5957 17.782H70.3637V19.69ZM70.3637 23.38H72.7577C73.6337 23.38 74.0717 23.032 74.0717 22.336C74.0717 21.64 73.6337 21.292 72.7577 21.292H70.3637V23.38Z" fill="white"></path> <path d="M82.5687 25.198C81.6207 25.198 80.7927 25.012 80.0847 24.64C79.3887 24.256 78.8487 23.722 78.4647 23.038C78.0807 22.342 77.8887 21.52 77.8887 20.572C77.8887 19.636 78.0807 18.826 78.4647 18.142C78.8487 17.446 79.3887 16.912 80.0847 16.54C80.7927 16.168 81.6207 15.982 82.5687 15.982C83.5167 15.982 84.3387 16.168 85.0347 16.54C85.7427 16.912 86.2887 17.446 86.6727 18.142C87.0687 18.826 87.2667 19.636 87.2667 20.572C87.2667 21.52 87.0687 22.342 86.6727 23.038C86.2887 23.722 85.7427 24.256 85.0347 24.64C84.3387 25.012 83.5167 25.198 82.5687 25.198ZM82.5687 23.164C83.1447 23.164 83.6127 22.954 83.9727 22.534C84.3447 22.114 84.5307 21.46 84.5307 20.572C84.5307 19.696 84.3447 19.054 83.9727 18.646C83.6127 18.226 83.1447 18.016 82.5687 18.016C81.9927 18.016 81.5247 18.226 81.1647 18.646C80.8047 19.054 80.6247 19.696 80.6247 20.572C80.6247 21.46 80.8047 22.114 81.1647 22.534C81.5247 22.954 81.9927 23.164 82.5687 23.164Z" fill="white"></path> <path d="M88.464 27.34V22.912H89.526C89.826 22.408 90.042 21.826 90.174 21.166C90.306 20.494 90.372 19.648 90.372 18.628V16.162H97.626V22.912H99.084V27.34H96.78V25H90.75V27.34H88.464ZM91.92 22.93H95.088V18.232H92.676V19.312C92.676 19.972 92.61 20.626 92.478 21.274C92.346 21.922 92.16 22.474 91.92 22.93Z" fill="white"></path> <rect x="12" y="77" width="24" height="24" fill="#E50040"></rect> <rect y="56" width="12" height="12" fill="#4FC7B5"></rect> </svg> 